<?xml version="1.0" encoding="utf-8"?>
<!-- Generator: Adobe Illustrator 23.0.1, SVG Export Plug-In . SVG Version: 6.00 Build 0)  -->
<svg version="1.1" id="Layer_1" xmlns="http://www.w3.org/2000/svg" xmlns:xlink="http://www.w3.org/1999/xlink" x="0px" y="0px"
	 viewBox="0 0 97.62 76.21" style="enable-background:new 0 0 97.62 76.21;" xml:space="preserve">
<style type="text/css">
	.st0{fill:url(#SVGID_1_);}
</style>
<linearGradient id="SVGID_1_" gradientUnits="userSpaceOnUse" x1="2.0618" y1="38.1049" x2="95.5602" y2="38.1049">
	<stop  offset="0" style="stop-color:#BB935D"/>
	<stop  offset="0.6275" style="stop-color:#FCC984"/>
	<stop  offset="0.7092" style="stop-color:#EBBA79"/>
	<stop  offset="0.8713" style="stop-color:#BD925B"/>
	<stop  offset="1" style="stop-color:#956F41"/>
</linearGradient>
<path class="st0" d="M44.09,43.25c-0.41-0.46-0.89-0.82-1.45-1.1c-0.56-0.27-1.17-0.41-1.84-0.41c-0.74,0-1.41,0.17-2,0.52
	c-0.59,0.35-1.07,0.81-1.44,1.39v-1.75h-1.8v13.66h2.04V49.8c0.35,0.59,0.82,1.08,1.41,1.45c0.59,0.37,1.28,0.56,2.06,0.56
	c0.63,0,1.21-0.13,1.74-0.4c0.53-0.27,0.98-0.62,1.36-1.08c0.38-0.45,0.68-0.98,0.89-1.6c0.21-0.61,0.32-1.27,0.32-1.98
	c0-0.67-0.11-1.31-0.34-1.91C44.81,44.24,44.5,43.7,44.09,43.25z M43.08,47.98c-0.14,0.4-0.33,0.75-0.58,1.06
	c-0.25,0.31-0.56,0.56-0.91,0.74c-0.35,0.19-0.75,0.28-1.18,0.28c-0.3,0-0.59-0.06-0.87-0.17c-0.28-0.11-0.55-0.26-0.79-0.45
	c-0.24-0.19-0.46-0.41-0.66-0.67c-0.2-0.26-0.36-0.54-0.48-0.84V45.4c0.07-0.27,0.2-0.52,0.39-0.75c0.19-0.23,0.4-0.43,0.65-0.6
	c0.25-0.17,0.51-0.31,0.8-0.41c0.28-0.1,0.56-0.15,0.82-0.15c0.43,0,0.84,0.09,1.21,0.26c0.37,0.17,0.69,0.41,0.96,0.71
	c0.27,0.3,0.48,0.64,0.63,1.04c0.15,0.4,0.23,0.82,0.23,1.26C43.29,47.17,43.22,47.58,43.08,47.98z M32.13,41.91h1.93l-4.4,11.95
	c-0.2,0.56-0.54,1.02-1.03,1.4c-0.49,0.38-1.12,0.57-1.88,0.57c-0.15,0-0.3-0.01-0.46-0.03c-0.16-0.02-0.34-0.06-0.54-0.12V53.9
	c0.19,0.04,0.37,0.07,0.55,0.09c0.18,0.02,0.32,0.04,0.44,0.04c0.16,0,0.3-0.03,0.42-0.1c0.12-0.07,0.24-0.19,0.36-0.36
	c0.12-0.17,0.25-0.42,0.38-0.73c0.13-0.32,0.28-0.72,0.45-1.22l-3.99-9.71h2.1l3.01,7.91L32.13,41.91z M10.73,43.24
	c-0.43-0.45-0.96-0.81-1.57-1.09c-0.61-0.27-1.3-0.41-2.05-0.41c-0.77,0-1.46,0.13-2.08,0.4c-0.62,0.27-1.15,0.63-1.59,1.1
	c-0.44,0.46-0.78,1-1.02,1.61c-0.24,0.61-0.36,1.26-0.36,1.94c0,0.68,0.12,1.32,0.36,1.93c0.24,0.61,0.58,1.14,1.02,1.6
	c0.44,0.46,0.97,0.82,1.59,1.09c0.62,0.27,1.31,0.4,2.06,0.4c1.03,0,1.93-0.23,2.7-0.7c0.77-0.46,1.33-1.06,1.66-1.79l-1.74-0.5
	c-0.1,0.22-0.24,0.43-0.41,0.61c-0.17,0.19-0.37,0.34-0.59,0.47c-0.22,0.13-0.47,0.23-0.73,0.3c-0.27,0.07-0.54,0.1-0.81,0.1
	c-0.37,0-0.73-0.07-1.07-0.2c-0.34-0.14-0.64-0.33-0.91-0.58c-0.27-0.25-0.48-0.55-0.65-0.9c-0.17-0.35-0.27-0.74-0.31-1.17h7.78
	c0.01-0.09,0.02-0.2,0.04-0.32c0.01-0.13,0.02-0.27,0.02-0.42c0-0.66-0.11-1.28-0.34-1.88C11.49,44.21,11.16,43.69,10.73,43.24z
	 M4.18,46.03c0.04-0.41,0.14-0.79,0.3-1.13c0.16-0.35,0.37-0.64,0.63-0.88c0.26-0.24,0.56-0.43,0.9-0.57c0.34-0.14,0.7-0.2,1.09-0.2
	c0.38,0,0.75,0.07,1.1,0.2c0.35,0.14,0.65,0.32,0.91,0.57c0.26,0.24,0.47,0.54,0.64,0.88c0.17,0.35,0.27,0.72,0.31,1.13H4.18z
	 M21.16,43.75c-0.38-0.59-0.87-1.08-1.46-1.45c-0.59-0.37-1.27-0.56-2.05-0.56c-0.67,0-1.28,0.13-1.83,0.4
	c-0.55,0.27-1.02,0.63-1.42,1.08c-0.4,0.45-0.71,0.98-0.93,1.6c-0.22,0.61-0.33,1.27-0.33,1.96c0,0.66,0.11,1.28,0.32,1.87
	c0.22,0.59,0.52,1.12,0.91,1.58c0.39,0.46,0.86,0.82,1.4,1.09c0.54,0.27,1.14,0.4,1.8,0.4c0.67,0,1.31-0.16,1.91-0.48
	c0.61-0.32,1.08-0.78,1.43-1.37v1.49c0,0.49-0.08,0.92-0.25,1.28c-0.17,0.36-0.39,0.66-0.68,0.89c-0.28,0.23-0.62,0.41-0.99,0.52
	c-0.38,0.11-0.78,0.17-1.2,0.17c-0.67,0-1.3-0.14-1.88-0.41c-0.59-0.27-1.07-0.67-1.44-1.19l-1.15,1.08
	c0.48,0.66,1.08,1.17,1.79,1.53c0.71,0.36,1.61,0.55,2.68,0.55c0.73,0,1.41-0.1,2.04-0.3c0.63-0.2,1.18-0.49,1.64-0.86
	c0.46-0.38,0.83-0.84,1.09-1.38c0.26-0.54,0.39-1.17,0.39-1.87v-9.43h-1.8V43.75z M20.92,48.13c-0.07,0.26-0.2,0.5-0.37,0.73
	c-0.17,0.23-0.38,0.43-0.62,0.61c-0.24,0.18-0.5,0.32-0.79,0.43c-0.28,0.11-0.58,0.16-0.89,0.16c-0.43,0-0.83-0.09-1.2-0.26
	c-0.37-0.17-0.68-0.41-0.96-0.7c-0.27-0.29-0.49-0.63-0.64-1.02c-0.15-0.39-0.23-0.81-0.23-1.25c0-0.42,0.07-0.83,0.2-1.23
	c0.14-0.4,0.33-0.75,0.58-1.07c0.25-0.32,0.55-0.57,0.9-0.76c0.35-0.19,0.75-0.29,1.2-0.29c0.28,0,0.57,0.05,0.85,0.16
	c0.28,0.11,0.55,0.25,0.81,0.44c0.25,0.19,0.48,0.41,0.68,0.66c0.2,0.25,0.36,0.54,0.48,0.84V48.13z M75.12,38.07h2.04v2.25h-2.04
	V38.07z M84.59,49.5l0.43,1.62c-0.26,0.12-0.62,0.26-1.08,0.42c-0.46,0.15-0.95,0.23-1.47,0.23c-0.32,0-0.63-0.04-0.91-0.13
	c-0.28-0.09-0.54-0.22-0.75-0.39c-0.22-0.17-0.39-0.4-0.51-0.68c-0.12-0.28-0.19-0.62-0.19-1.01v-6.07h-1.28v-1.58h1.28v-3.19h2.04
	v3.19h2.12v1.58h-2.12v5.42c0.02,0.35,0.13,0.6,0.32,0.75c0.19,0.15,0.43,0.23,0.71,0.23c0.28,0,0.56-0.05,0.82-0.15
	C84.27,49.64,84.47,49.56,84.59,49.5z M95.22,44.81c-0.23-0.6-0.56-1.13-0.99-1.58c-0.43-0.45-0.96-0.81-1.57-1.09
	c-0.61-0.27-1.3-0.41-2.05-0.41c-0.77,0-1.46,0.13-2.08,0.4c-0.62,0.27-1.15,0.63-1.59,1.1c-0.44,0.46-0.78,1-1.02,1.61
	c-0.24,0.61-0.36,1.26-0.36,1.94c0,0.68,0.12,1.32,0.36,1.93c0.24,0.61,0.58,1.14,1.02,1.6c0.44,0.46,0.97,0.82,1.59,1.09
	c0.62,0.27,1.31,0.4,2.06,0.4c1.03,0,1.93-0.23,2.7-0.7c0.77-0.46,1.33-1.06,1.66-1.79l-1.74-0.5c-0.1,0.22-0.24,0.43-0.41,0.61
	c-0.17,0.19-0.37,0.34-0.59,0.47c-0.22,0.13-0.47,0.23-0.73,0.3c-0.27,0.07-0.54,0.1-0.81,0.1c-0.37,0-0.73-0.07-1.07-0.2
	c-0.34-0.14-0.64-0.33-0.91-0.58c-0.27-0.25-0.48-0.55-0.65-0.9c-0.17-0.35-0.27-0.74-0.31-1.17h7.78c0.01-0.09,0.02-0.2,0.04-0.32
	c0.01-0.13,0.02-0.27,0.02-0.42C95.56,46.04,95.45,45.41,95.22,44.81z M87.67,46.03c0.04-0.41,0.14-0.79,0.3-1.13
	c0.16-0.35,0.37-0.64,0.63-0.88c0.26-0.24,0.56-0.43,0.9-0.57c0.34-0.14,0.7-0.2,1.09-0.2c0.38,0,0.75,0.07,1.1,0.2
	c0.35,0.14,0.65,0.32,0.91,0.57c0.26,0.24,0.47,0.54,0.64,0.88c0.17,0.35,0.27,0.72,0.31,1.13H87.67z M75.12,41.91h2.04v9.71h-2.04
	V41.91z M73.64,49.72l0.3,1.6c-0.3,0.14-0.65,0.24-1.06,0.32c-0.41,0.08-0.77,0.12-1.1,0.12c-0.71,0-1.25-0.19-1.64-0.58
	c-0.39-0.38-0.58-0.93-0.58-1.63V38.07h2.04v10.75c0,0.36,0.09,0.64,0.28,0.84c0.19,0.2,0.45,0.31,0.78,0.31
	c0.14,0,0.29-0.02,0.47-0.07C73.31,49.84,73.48,49.79,73.64,49.72z M52.07,49.5l0.43,1.62c-0.26,0.12-0.62,0.26-1.08,0.42
	c-0.46,0.15-0.95,0.23-1.47,0.23c-0.32,0-0.63-0.04-0.91-0.13c-0.28-0.09-0.54-0.22-0.75-0.39c-0.22-0.17-0.39-0.4-0.51-0.68
	c-0.12-0.28-0.19-0.62-0.19-1.01v-6.07h-1.28v-1.58h1.28v-3.19h2.04v3.19h2.12v1.58h-2.12v5.42c0.02,0.35,0.13,0.6,0.32,0.75
	c0.19,0.15,0.43,0.23,0.71,0.23c0.28,0,0.56-0.05,0.82-0.15C51.75,49.64,51.95,49.56,52.07,49.5z M66.53,43.24
	c-0.43-0.45-0.96-0.81-1.57-1.09c-0.61-0.27-1.3-0.41-2.05-0.41c-0.77,0-1.46,0.13-2.08,0.4c-0.62,0.27-1.15,0.63-1.59,1.1
	c-0.44,0.46-0.78,1-1.02,1.61c-0.24,0.61-0.36,1.26-0.36,1.94c0,0.68,0.12,1.32,0.36,1.93c0.24,0.61,0.58,1.14,1.02,1.6
	c0.44,0.46,0.97,0.82,1.59,1.09c0.62,0.27,1.31,0.4,2.06,0.4c1.03,0,1.93-0.23,2.7-0.7c0.77-0.46,1.33-1.06,1.66-1.79l-1.74-0.5
	c-0.1,0.22-0.24,0.43-0.41,0.61c-0.17,0.19-0.37,0.34-0.59,0.47c-0.22,0.13-0.47,0.23-0.73,0.3c-0.27,0.07-0.54,0.1-0.81,0.1
	c-0.37,0-0.73-0.07-1.07-0.2c-0.34-0.14-0.64-0.33-0.91-0.58c-0.27-0.25-0.48-0.55-0.65-0.9c-0.17-0.35-0.27-0.74-0.31-1.17h7.78
	c0.01-0.09,0.02-0.2,0.04-0.32c0.01-0.13,0.02-0.27,0.02-0.42c0-0.66-0.11-1.28-0.34-1.88C67.29,44.21,66.96,43.69,66.53,43.24z
	 M59.98,46.03c0.04-0.41,0.14-0.79,0.3-1.13c0.16-0.35,0.37-0.64,0.63-0.88c0.26-0.24,0.56-0.43,0.9-0.57
	c0.34-0.14,0.7-0.2,1.09-0.2c0.38,0,0.75,0.07,1.1,0.2c0.35,0.14,0.65,0.32,0.91,0.57c0.26,0.24,0.47,0.54,0.64,0.88
	c0.17,0.35,0.27,0.72,0.31,1.13H59.98z M77.43,19.57h3.2c-1.12,7.55-7.62,13.34-15.48,13.34c-6.47,0-12.03-3.93-14.41-9.53
	l2.16-3.64c1.15,5.71,6.21,10.02,12.25,10.02C71.25,29.76,76.34,25.36,77.43,19.57z M49.61,19.11c1.77-2.99,3.35-6.46,5.57-9.25
	c1.63-2.05,3.61-3.72,6.26-4.54c1.17-0.36,2.42-0.56,3.71-0.56c5.34,0,9.91,3.37,11.69,8.09H65.15V16h15.6
	c-0.09-1.09-0.28-2.14-0.58-3.15c-1.9-6.49-7.9-11.24-15.02-11.24c-3.55,0-6.83,1.18-9.46,3.18c-3.53,2.68-5.41,7.01-7.61,10.73
	c-1.1,1.86-2.21,3.72-3.31,5.59c-1.06,1.8-2.02,3.64-3.54,5.12c-1.38,1.34-3.07,2.36-4.9,2.95c-1.2,0.38-2.48,0.59-3.8,0.59
	c-6.89,0-12.5-5.61-12.5-12.5s5.61-12.5,12.5-12.5c5.34,0,9.91,3.37,11.69,8.09H32.52V16h11.61l2.83-4.78
	c-2.36-5.64-7.94-9.61-14.44-9.61c-8.64,0-15.65,7.01-15.65,15.65c0,8.64,7.01,15.65,15.65,15.65c1.74,0,3.41-0.28,4.97-0.81
	c0.33-0.11,0.65-0.23,0.97-0.36c0.86-0.35,1.68-0.78,2.46-1.27c1.99-1.27,3.69-3,4.93-5.01L49.61,19.11z M36.07,74.41h-9.05v-1.77
	l4.18-4.72c0.62-0.73,1.07-1.36,1.33-1.87c0.26-0.51,0.39-0.98,0.39-1.4c0-0.56-0.14-1-0.42-1.33c-0.28-0.33-0.69-0.5-1.25-0.5
	c-0.59,0-1.04,0.21-1.36,0.64c-0.32,0.43-0.48,0.97-0.48,1.62h-2.63l-0.02-0.06c-0.03-1.2,0.36-2.21,1.19-3.04
	c0.82-0.83,1.92-1.25,3.31-1.25c1.38,0,2.46,0.35,3.22,1.06c0.77,0.71,1.15,1.66,1.15,2.85c0,0.81-0.21,1.55-0.64,2.21
	c-0.43,0.67-1.17,1.59-2.22,2.77l-2.22,2.67l0.02,0.05h5.51V74.41z M47.58,69.53c0,1.58-0.42,2.82-1.25,3.72
	c-0.83,0.9-1.93,1.35-3.3,1.35c-1.38,0-2.49-0.45-3.32-1.35c-0.83-0.9-1.25-2.14-1.25-3.72v-3.71c0-1.57,0.42-2.81,1.25-3.72
	c0.83-0.91,1.93-1.36,3.31-1.36c1.37,0,2.47,0.45,3.31,1.36c0.84,0.91,1.25,2.15,1.25,3.72V69.53z M44.89,65.54
	c0-0.86-0.17-1.53-0.5-2.01c-0.33-0.48-0.79-0.71-1.38-0.71c-0.59,0-1.05,0.24-1.37,0.71c-0.32,0.48-0.49,1.15-0.49,2.01v4.25
	c0,0.88,0.16,1.56,0.49,2.03s0.79,0.71,1.39,0.71c0.59,0,1.04-0.24,1.37-0.71s0.49-1.15,0.49-2.03V65.54z M54.58,66.48
	c0.64,0,1.12-0.17,1.43-0.5c0.31-0.33,0.47-0.8,0.47-1.41c0-0.51-0.16-0.93-0.49-1.26c-0.33-0.33-0.78-0.5-1.37-0.5
	c-0.49,0-0.91,0.15-1.25,0.45c-0.34,0.3-0.5,0.69-0.5,1.16h-2.61l-0.02-0.06c-0.04-1.06,0.37-1.93,1.22-2.61
	c0.85-0.69,1.9-1.03,3.16-1.03c1.39,0,2.5,0.33,3.32,0.99c0.82,0.66,1.23,1.6,1.23,2.83c0,0.62-0.18,1.18-0.53,1.7
	c-0.35,0.52-0.84,0.92-1.46,1.22c0.7,0.27,1.25,0.67,1.63,1.21c0.38,0.54,0.57,1.19,0.57,1.96c0,1.23-0.45,2.21-1.34,2.91
	c-0.89,0.71-2.04,1.06-3.43,1.06c-1.23,0-2.3-0.33-3.22-1c-0.92-0.67-1.36-1.6-1.33-2.81l0.02-0.06h2.63c0,0.51,0.18,0.93,0.53,1.27
	c0.35,0.34,0.81,0.51,1.37,0.51c0.62,0,1.12-0.18,1.5-0.55c0.38-0.36,0.57-0.82,0.57-1.38c0-0.71-0.18-1.24-0.54-1.58
	c-0.36-0.34-0.88-0.51-1.57-0.51h-1.49v-2.03H54.58z M70.86,69.53c0,1.58-0.42,2.82-1.25,3.72c-0.83,0.9-1.93,1.35-3.3,1.35
	c-1.38,0-2.49-0.45-3.32-1.35c-0.83-0.9-1.25-2.14-1.25-3.72v-3.71c0-1.57,0.41-2.81,1.25-3.72c0.83-0.91,1.93-1.36,3.31-1.36
	c1.37,0,2.47,0.45,3.31,1.36c0.84,0.91,1.25,2.15,1.25,3.72V69.53z M68.16,65.54c0-0.86-0.17-1.53-0.5-2.01
	c-0.33-0.48-0.79-0.71-1.38-0.71c-0.59,0-1.05,0.24-1.38,0.71c-0.32,0.48-0.49,1.15-0.49,2.01v4.25c0,0.88,0.16,1.56,0.49,2.03
	s0.79,0.71,1.39,0.71c0.59,0,1.04-0.24,1.37-0.71s0.49-1.15,0.49-2.03V65.54z"/>
</svg>
